# xmcd
#
# Track frame offsets:
#	150
#	9860
#	20695
#	32227
#	46095
#	55710
#	67120
#	78690
#	89505
#	100212
#	110282
#	119395
#	133090
#	146602
#	157802
#	169987
#	183217
#	195312
#	204885
#	215442
#
# Disc length: 3027 seconds
#
# Revision: 0
# Processed by: cddbd v1.5.2PL0 Copyright (c) Steve Scherf et al.
# Submitted via: audiograbber 1.83.01
#
DISCID=0c0bd114
DTITLE=Pat Boone - The Best Of Pat Boone
DYEAR=2005
DGENRE=Country
TTITLE0=Love Letters In The Sand
TTITLE1=I Love You More And More
TTITLE2=I Almost Lost My Head
TTITLE3=Friendly Persuasion
TTITLE4=Mr. Blue
TTITLE5=April Love
TTITLE6=Speedy Gonzales
TTITLE7=Ain't That A Shame
TTITLE8=Tutti Trutti
TTITLE9=Don't Forbid Me
TTITLE10=A Wonderful Time Up There
TTITLE11=I Believe In Music
TTITLE12=I'll Be Home
TTITLE13=Moody River
TTITLE14=She Fights That Lovin' Feelin'
TTITLE15=Jambalaya
TTITLE16=You Lay So Easy On My Mind
TTITLE17=Bernadine
TTITLE18=Where There's A Heartache
TTITLE19=Poetry In Motion
EXTD=
EXTT0=
EXTT1=
EXTT2=
EXTT3=
EXTT4=
EXTT5=
EXTT6=
EXTT7=
EXTT8=
EXTT9=
EXTT10=
EXTT11=
EXTT12=
EXTT13=
EXTT14=
EXTT15=
EXTT16=
EXTT17=
EXTT18=
EXTT19=
PLAYORDER=
